<svg width="130" height="33" viewBox="0 0 130 33" fill="none" xmlns="http://www.w3.org/2000/svg">
<path d="M52.652 23H55.312V9.738H52.652V15.191H46.971V9.738H44.311V23H46.971V17.357H52.652V23ZM67.6201 9.719H59.9251V23H67.6201V20.834H62.5851V17.319H67.0501V15.21H62.5851V11.885H67.6201V9.719ZM79.0624 13.861C79.0624 15.058 78.3974 15.837 76.9154 15.837H74.6924V11.942H76.9154C78.3974 11.942 79.0624 12.683 79.0624 13.861ZM72.0324 9.738V23H74.6924V17.832H75.9464L78.8724 23H81.9504L78.7774 17.623C80.9054 17.053 81.7984 15.419 81.7984 13.804C81.7984 11.581 80.2024 9.738 77.0104 9.738H72.0324ZM99.1383 16.331C99.1383 12.36 96.1363 9.548 92.3553 9.548C88.6123 9.548 85.5533 12.36 85.5533 16.331C85.5533 20.321 88.6123 23.133 92.3553 23.133C96.1173 23.133 99.1383 20.321 99.1383 16.331ZM88.2893 16.331C88.2893 13.633 89.9423 11.942 92.3553 11.942C94.7493 11.942 96.4023 13.633 96.4023 16.331C96.4023 19.029 94.7493 20.758 92.3553 20.758C89.9423 20.758 88.2893 19.029 88.2893 16.331ZM110.598 23H113.961L108.337 16.312L113.809 9.738H110.598L105.772 15.685V9.738H103.112V23H105.772V17.091L110.598 23ZM117.668 17.927C117.668 21.423 120.062 23.133 122.969 23.133C125.876 23.133 128.384 21.423 128.384 17.927V9.738H125.705V17.946C125.705 19.77 124.717 20.72 123.007 20.72C121.316 20.72 120.328 19.77 120.328 17.946V9.738H117.668V17.927Z" fill="#143C3C"/>
<rect width="33" height="33"/>
<mask id="mask0_0_288" style="mask-type:alpha" maskUnits="userSpaceOnUse" x="0" y="0" width="33" height="33">
<rect width="33" height="33"/>
</mask>
<g mask="url(#mask0_0_288)">
<rect y="2" width="29" height="30" fill="#143C3C"/>
</g>
</svg>
